<?xml version="1.0" encoding="utf-8"?>
<!-- Generator: Adobe Illustrator 25.2.1, SVG Export Plug-In . SVG Version: 6.00 Build 0)  -->
<svg version="1.1" id="Layer_1" xmlns="http://www.w3.org/2000/svg" xmlns:xlink="http://www.w3.org/1999/xlink" x="0px" y="0px"
	 viewBox="0 0 1000 972.5" style="enable-background:new 0 0 1000 972.5;" xml:space="preserve">
<style type="text/css">
	.st0{fill:#677B87;}
	.st1{fill:#131A29;}
	.st2{fill:none;stroke:#131A29;stroke-width:5;stroke-linecap:round;stroke-linejoin:round;stroke-miterlimit:10;}
	.st3{fill:#677B87;}
	.st4{fill:none;stroke:#677B87;stroke-width:8;stroke-miterlimit:10;}
	.st5{fill:none;stroke:#677B87;stroke-width:14;stroke-miterlimit:10;}
	.st6{fill:none;stroke:#677B87;stroke-width:14;stroke-miterlimit:10;}
	.st7{fill:none;stroke:#677B87;stroke-miterlimit:10;}
</style>
<g>
	<g>
		<g>
			<circle class="st3" cx="500" cy="175.5" r="164.5"/>
		</g>
		<g>
			<g>
				<path class="st1" d="M500.1,245.2l-0.1-10.3l92.2-1.3V119.4l-4.5,0l0-10.3l9.7,0c0,0,0,0,0,0c1.4,0,2.7,0.5,3.6,1.5
					c1,1,1.5,2.3,1.5,3.7v124.5c0,2.8-2.3,5.1-5.1,5.2L500.1,245.2z"/>
			</g>
			<g>
				<path class="st1" d="M565.9,125.6c-0.5,0-1-0.1-1.5-0.3c-6.4-2.8-13.5-3.9-21.1-3.5c-2,0.1-3.8-1.4-3.9-3.5
					c-0.1-2,1.4-3.8,3.5-3.9c8.8-0.5,17.1,0.9,24.5,4.1c1.9,0.8,2.7,3,1.9,4.9C568.7,124.8,567.3,125.6,565.9,125.6z"/>
			</g>
			<g>
				<path class="st1" d="M516.1,128.9c-1.4,0-2.7-0.8-3.4-2.2c-0.8-1.9,0-4,1.8-4.9c2.9-1.3,5.9-2.5,8.9-3.5c1.9-0.6,4,0.4,4.7,2.3
					c0.6,1.9-0.4,4-2.3,4.7c-2.8,0.9-5.5,2-8.2,3.2C517.1,128.8,516.6,128.9,516.1,128.9z"/>
			</g>
			<g>
				<path class="st1" d="M565.9,152.6c-0.5,0-1-0.1-1.5-0.3c-3.3-1.4-6.8-2.5-10.5-3c-2-0.3-3.4-2.2-3.1-4.2c0.3-2,2.2-3.4,4.2-3.1
					c4.3,0.7,8.4,1.9,12.3,3.5c1.9,0.8,2.7,3,1.9,4.9C568.7,151.8,567.3,152.6,565.9,152.6z"/>
			</g>
			<g>
				<path class="st1" d="M524.3,152.6c-1.5,0-3-1-3.5-2.5c-0.7-1.9,0.4-4,2.3-4.7c6.3-2.1,12.5-3.4,18.5-3.9c2-0.1,3.8,1.4,4,3.4
					c0.2,2-1.4,3.8-3.4,4c-5.4,0.4-11,1.6-16.7,3.5C525.1,152.5,524.7,152.6,524.3,152.6z"/>
			</g>
			<g>
				<path class="st1" d="M565.9,179.6c-0.5,0-1-0.1-1.5-0.3c-8.3-3.6-17.9-4.5-28.3-2.6c-2,0.4-3.9-1-4.3-3c-0.4-2,1-3.9,3-4.3
					c11.9-2.1,22.9-1.1,32.6,3.1c1.9,0.8,2.7,3,1.9,4.9C568.7,178.7,567.3,179.6,565.9,179.6z"/>
			</g>
			<g>
				<path class="st1" d="M511.4,185.1c-1.3,0-2.6-0.7-3.3-1.9c-1-1.8-0.3-4,1.5-5c1.7-0.9,4.3-2.2,7.7-3.6c1.9-0.8,4,0.1,4.8,2
					c0.8,1.9-0.1,4-2,4.8c-3.1,1.3-5.5,2.5-7,3.3C512.6,185,512,185.1,511.4,185.1z"/>
			</g>
			<g>
				<path class="st1" d="M565.9,206.5c-0.5,0-1-0.1-1.5-0.3c-2.8-1.2-5.8-2.1-8.9-2.7c-2-0.4-3.3-2.3-2.9-4.3c0.4-2,2.3-3.3,4.3-2.9
					c3.6,0.7,7.1,1.8,10.4,3.2c1.9,0.8,2.7,3,1.9,4.9C568.7,205.7,567.3,206.5,565.9,206.5z"/>
			</g>
			<g>
				<path class="st1" d="M516.2,209.7c-1.4,0-2.7-0.8-3.4-2.2c-0.8-1.9,0-4,1.8-4.9c7-3.2,18-7.1,30.1-7.4c0,0,0.1,0,0.1,0
					c2,0,3.6,1.6,3.7,3.6c0.1,2-1.6,3.7-3.6,3.8c-10.9,0.3-20.8,3.8-27.2,6.7C517.2,209.6,516.7,209.7,516.2,209.7z"/>
			</g>
			<g>
				<path class="st1" d="M500,241c-1.1,0-2.1-0.3-3.1-1c-35.7-26.2-72.1-10.8-72.5-10.6c-1.6,0.7-3.4,0.5-4.9-0.4
					c-1.5-1-2.3-2.6-2.3-4.3V104.7c0-2,1.1-3.7,2.9-4.6c35.6-17.8,70.1-2.6,79.9,2.5c9.8-5.1,44.3-20.3,79.9-2.5
					c1.7,0.9,2.9,2.7,2.9,4.6v119.9c0,1.7-0.9,3.4-2.3,4.3c-1.5,1-3.3,1.1-4.9,0.4c-1.5-0.6-37-15.5-72.5,10.6
					C502.2,240.7,501.1,241,500,241z M451.1,214.3c14,0,31.4,3.4,48.9,15.2c29.8-20.2,59.2-15.7,72.4-12.1V108
					c-35.1-15.6-69.4,4.7-69.8,4.9c-1.6,1-3.7,1-5.4,0c-0.3-0.2-34.7-20.5-69.7-4.9v109.5C433,215.9,441.2,214.3,451.1,214.3z"/>
			</g>
			<g>
				<path class="st1" d="M499.9,245.2l-97.3-1.3c-2.8,0-5.1-2.3-5.1-5.2V114.2c0-1.4,0.5-2.7,1.5-3.7c1-1,2.3-1.5,3.6-1.5
					c0,0,0,0,0,0l9.7,0l0,10.3l-4.5,0v114.2l92.2,1.3L499.9,245.2z"/>
			</g>
			<g>
				<path class="st1" d="M434.1,125.6c-1.4,0-2.8-0.8-3.4-2.2c-0.8-1.9,0-4,1.9-4.9c7.4-3.2,15.7-4.6,24.5-4.1
					c2,0.1,3.6,1.9,3.5,3.9c-0.1,2-1.8,3.6-3.9,3.5c-7.7-0.4-14.8,0.7-21.1,3.5C435.1,125.5,434.6,125.6,434.1,125.6z"/>
			</g>
			<g>
				<path class="st1" d="M484.4,129.1c-0.5,0-1-0.1-1.6-0.3c-2.8-1.3-5.8-2.5-8.7-3.5c-1.9-0.6-3-2.7-2.3-4.7s2.7-3,4.7-2.3
					c3.2,1.1,6.4,2.3,9.5,3.8c1.8,0.9,2.6,3.1,1.8,4.9C487.1,128.3,485.8,129.1,484.4,129.1z"/>
			</g>
			<g>
				<path class="st1" d="M434.1,152.6c-1.4,0-2.8-0.8-3.4-2.2c-0.8-1.9,0-4,1.9-4.9c3.9-1.7,8-2.9,12.3-3.5c2-0.3,3.9,1.1,4.2,3.1
					c0.3,2-1.1,3.9-3.1,4.2c-3.7,0.6-7.2,1.6-10.5,3C435.1,152.5,434.6,152.6,434.1,152.6z"/>
			</g>
			<g>
				<path class="st2" d="M458.1,145.2"/>
			</g>
			<g>
				<path class="st2" d="M491.3,156"/>
			</g>
			<g>
				<path class="st1" d="M434.1,179.6c-1.4,0-2.8-0.8-3.4-2.2c-0.8-1.9,0-4,1.9-4.9c9.7-4.2,20.6-5.3,32.6-3.1c2,0.4,3.3,2.3,3,4.3
					c-0.4,2-2.3,3.3-4.3,3c-10.5-1.9-20-1-28.3,2.6C435.1,179.5,434.6,179.6,434.1,179.6z"/>
			</g>
			<g>
				<path class="st1" d="M434.1,206.5c-1.4,0-2.8-0.8-3.4-2.2c-0.8-1.9,0-4,1.9-4.9c3.3-1.4,6.8-2.5,10.4-3.2c2-0.4,3.9,0.9,4.3,2.9
					c0.4,2-0.9,3.9-2.9,4.3c-3.1,0.6-6.1,1.5-8.9,2.7C435.1,206.4,434.6,206.5,434.1,206.5z"/>
			</g>
			<g>
				<path class="st1" d="M479.9,208.1c-0.5,0-0.9-0.1-1.4-0.3c-8-3.2-16.1-4.9-23.5-5.1c-2-0.1-3.6-1.7-3.6-3.8
					c0.1-2,1.7-3.6,3.7-3.6c0,0,0.1,0,0.1,0c8.4,0.2,17.1,2.1,26,5.7c1.9,0.8,2.8,2.9,2.1,4.8C482.7,207.2,481.4,208.1,479.9,208.1z
					"/>
			</g>
			<g>
				<path class="st1" d="M500,246.7c-2.9,0-5.2-2.3-5.2-5.2V105.7c0-2.9,2.3-5.2,5.2-5.2c2.9,0,5.2,2.3,5.2,5.2v135.9
					C505.2,244.4,502.9,246.7,500,246.7z"/>
			</g>
		</g>
	</g>
	<g>
		<g>
			<circle class="st0" cx="500" cy="797" r="164.5"/>
		</g>
		<g>
			<path class="st1" d="M500,902.2c-58,0-105.2-47.2-105.2-105.2c0-58,47.2-105.2,105.2-105.2c6.8,0,13.7,0.7,20.4,2
				c2.8,0.5,4.6,3.3,4.1,6.1c-0.5,2.8-3.3,4.6-6.1,4.1c-6-1.2-12.2-1.8-18.4-1.8c-52.3,0-94.9,42.6-94.9,94.9s42.6,94.9,94.9,94.9
				c52.3,0,94.9-42.6,94.9-94.9c0-2.1-0.1-4.2-0.2-6.3c-0.2-2.8,2-5.3,4.8-5.5c2.8-0.2,5.3,2,5.5,4.8c0.2,2.3,0.2,4.7,0.2,7
				C605.2,855,558,902.2,500,902.2z"/>
		</g>
		<g>
			<path class="st1" d="M500,876.9c-44.1,0-79.9-35.8-79.9-79.9c0-44.1,35.8-79.9,79.9-79.9c5.2,0,10.4,0.5,15.5,1.5
				c2.8,0.5,4.6,3.3,4.1,6.1c-0.6,2.8-3.3,4.6-6.1,4.1c-4.4-0.9-8.9-1.3-13.5-1.3c-38.4,0-69.6,31.2-69.6,69.6s31.2,69.6,69.6,69.6
				c38.4,0,69.6-31.2,69.6-69.6c0-1.6-0.1-3.1-0.2-4.7c-0.2-2.8,2-5.3,4.8-5.5c2.8-0.2,5.3,2,5.5,4.8c0.1,1.8,0.2,3.6,0.2,5.3
				C579.9,841,544.1,876.9,500,876.9z"/>
		</g>
		<g>
			<path class="st1" d="M500,853.2c-31,0-56.2-25.2-56.2-56.2s25.2-56.2,56.2-56.2c1.9,0,3.8,0.1,5.7,0.3c2.8,0.3,4.9,2.8,4.6,5.7
				c-0.3,2.8-2.8,4.9-5.7,4.6c-1.6-0.2-3.1-0.2-4.7-0.2c-25.3,0-45.9,20.6-45.9,45.9c0,25.3,20.6,45.9,45.9,45.9
				c25.3,0,45.9-20.6,45.9-45.9c0-2.9,2.3-5.2,5.2-5.2s5.2,2.3,5.2,5.2C556.2,828,531,853.2,500,853.2z"/>
		</g>
		<g>
			<g>
				<path class="st1" d="M565.8,776.2l-26-11.4c-1.4-1.1-2.6-2.4-3.5-3.9l-8.4-27.1c-2.8-4.4-2.7-9.4,0.2-12l26.4-23.7
					c4-3.6,11.6-1.2,15.4,5l5.6,22.6c0.9,1.5,2.1,2.8,3.5,3.9l21.8,8c5.7,4.5,7.3,12.3,3.3,15.9l-26.4,23.7
					C574.8,779.9,569.9,779.5,565.8,776.2z"/>
			</g>
			<g>
				<path class="st1" d="M500,802.1c-1.4,0-2.8-0.6-3.8-1.7c-1.9-2.1-1.7-5.4,0.4-7.3l50.2-45c2.1-1.9,5.4-1.7,7.3,0.4
					c1.9,2.1,1.7,5.4-0.4,7.3l-50.2,45C502.5,801.7,501.2,802.1,500,802.1z"/>
			</g>
		</g>
	</g>
	<g>
		<path class="st4" d="M500,420.9"/>
	</g>
</g>
<path class="st6" d="M157.7,446.9C169.9,340,230.9,248,318,193.7"/>
<path class="st5" d="M155.9,468.5c-0.3,5.9-0.4,11.8-0.4,17.7c0,123.5,65,231.8,162.6,292.6"/>
<path class="st5" d="M682,778.8c94-58.6,157.7-161.2,162.2-279"/>
<path class="st6" d="M681.9,193.6c95.5,59.5,159.7,164.4,162.5,284.5"/>
<g>
	<polyline class="st6" points="181.5,488.5 155.6,468.2 129.7,488.5 	"/>
</g>
<g>
	<polyline class="st5" points="181.5,488.5 155.6,468.2 129.7,488.5 	"/>
</g>
<g>
	<polyline class="st6" points="817.5,460 844.8,478.3 869.1,456.1 	"/>
</g>
<path class="st7" d="M500,486.2"/>
</svg>
